<?xml version="1.0" encoding="utf-8"?>
<!-- Generator: Adobe Illustrator 15.0.0, SVG Export Plug-In . SVG Version: 6.00 Build 0)  -->
<!DOCTYPE svg PUBLIC "-//W3C//DTD SVG 1.1//EN" "http://www.w3.org/Graphics/SVG/1.1/DTD/svg11.dtd">
<svg version="1.1" id="レイヤー_1" xmlns="http://www.w3.org/2000/svg" xmlns:xlink="http://www.w3.org/1999/xlink" x="0px"
	 y="0px" width="92px" height="92px" viewBox="-21.788 -14.107 92 92" enable-background="new -21.788 -14.107 92 92"
	 xml:space="preserve">
<path fill="#DF1C1C" d="M50.273,36.312c0.029-1.188-0.407-2.316-1.228-3.178c-0.242-0.254-0.509-0.476-0.797-0.663
	c0.791-0.783,1.29-1.861,1.319-3.06c0.058-2.453-1.891-4.497-4.367-4.557h-3.332c-0.147,0-0.295,0.007-0.441,0.022h-6.232
	c-0.066-0.026-0.201-0.093-0.244-0.202c-0.071-0.18,0.005-0.608,0.434-1.272c0.021-0.035,0.042-0.07,0.06-0.107
	c1.679-3.476,2.233-7.326,1.604-11.135c-0.007-0.043-0.017-0.085-0.029-0.127c-1.18-3.886-3.776-4.306-4.838-4.306
	c-0.307,0-0.608,0.033-0.896,0.096c-1.345,0.294-1.747,2.579-1.763,2.951c-0.01,2.024-0.354,4.02-1.012,5.901
	c-0.437,1.137-1.246,2.12-2.313,2.79c-1.761,1.21-2.319,2.597-3.542,5.634c-0.346,0.858-0.752,1.867-1.262,3.065
	c-0.974,2.284-1.796,2.416-2.588,2.545c-0.201,0.013-1.635,0.024-2.63,0.03c-0.317-1.553-1.704-2.729-3.375-2.729
	c-1.977,0.017-4.397,0.034-6.158,0.046c-1.866,0.014-3.385,1.543-3.385,3.409v21.218c0.019,1.861,1.547,3.375,3.408,3.375
	c0.003,0,0.031,0,0.034,0c1.772-0.016,4.198-0.038,6.181-0.061c1.856-0.024,3.365-1.555,3.364-3.409v-0.185h26.33
	c0.011,0,0.021,0,0.033-0.001c2.063-0.067,3.731-1.736,3.799-3.8c0.025-0.833-0.211-1.615-0.636-2.265
	c1.5-0.523,2.597-1.931,2.658-3.59c0.034-0.927-0.256-1.793-0.77-2.487C49.172,39.577,50.231,38.073,50.273,36.312z M14.244,52.59
	c0,0.767-0.623,1.398-1.388,1.408c-1.98,0.022-4.404,0.045-6.175,0.061l-0.015,1v-1c-0.769,0-1.4-0.626-1.408-1.409V31.465
	c0-0.771,0.628-1.403,1.399-1.409c1.761-0.012,4.182-0.029,6.179-0.046c0.769,0,1.401,0.625,1.409,1.409V52.59z M45.906,38.654
	h-1.318c-0.545,0-0.989,0.437-1,0.981c-0.01,0.545,0.418,0.998,0.963,1.018c1.076,0.04,1.919,0.947,1.88,2.022
	c-0.038,1.017-0.863,1.843-1.843,1.879h-2.014c-0.546,0-0.991,0.438-1,0.984s0.422,0.998,0.968,1.015
	c1.062,0.034,1.898,0.926,1.865,1.986c-0.033,1.008-0.845,1.823-1.852,1.864H16.244V32.74c1.073-0.007,2.653-0.021,2.874-0.059
	c1.311-0.209,2.818-0.688,4.117-3.734c0.516-1.213,0.927-2.233,1.276-3.101c1.164-2.891,1.557-3.864,2.785-4.71
	c1.396-0.875,2.49-2.205,3.093-3.773c0.741-2.12,1.122-4.333,1.133-6.54c0.015-0.222,0.207-0.817,0.371-1.078
	c0.093-0.012,0.189-0.019,0.288-0.019c0.759,0,2.139,0.369,2.905,2.825c0.541,3.359,0.051,6.752-1.418,9.821
	c-0.998,1.579-0.804,2.656-0.462,3.284c0.459,0.841,1.385,1.22,1.896,1.22h6.381c0.041,0,0.081-0.002,0.121-0.007
	c0.088-0.011,0.176-0.015,0.264-0.015l3.308,0c1.351,0.033,2.424,1.159,2.392,2.509c-0.031,1.311-1.082,2.361-2.391,2.392
	c-0.548,0.013-0.982,0.463-0.977,1.011c0.007,0.548,0.452,0.988,1,0.988h0.681c0.655,0.016,1.265,0.286,1.717,0.76
	c0.451,0.474,0.691,1.095,0.675,1.75C48.242,37.573,47.192,38.623,45.906,38.654z"/>
</svg>
