<?xml version="1.0" encoding="utf-8"?>
<!-- Generator: Adobe Illustrator 15.0.0, SVG Export Plug-In . SVG Version: 6.00 Build 0)  -->
<!DOCTYPE svg PUBLIC "-//W3C//DTD SVG 1.1//EN" "http://www.w3.org/Graphics/SVG/1.1/DTD/svg11.dtd">
<svg version="1.1" id="レイヤー_1" xmlns="http://www.w3.org/2000/svg" xmlns:xlink="http://www.w3.org/1999/xlink" x="0px"
	 y="0px" width="92px" height="92px" viewBox="-21.788 -14.107 92 92" enable-background="new -21.788 -14.107 92 92"
	 xml:space="preserve">
<path fill="#DF1C1C" d="M24.211,4.718C9.234,4.725-2.956,16.915-2.963,31.893c0,14.984,12.19,27.175,27.175,27.175
	c14.985,0,27.176-12.19,27.176-27.175S39.197,4.718,24.211,4.718z M24.212,57.067c-13.881,0-25.175-11.293-25.175-25.174
	c0.006-13.875,11.3-25.169,25.175-25.175c13.882,0,25.176,11.293,25.176,25.175C49.388,45.774,38.094,57.067,24.212,57.067z"/>
<path fill="#DF1C1C" d="M40.019,27.344h-11.35L25.163,16.55c-0.134-0.412-0.518-0.691-0.951-0.691s-0.817,0.279-0.951,0.691
	l-3.507,10.793H8.404c-0.433,0-0.817,0.279-0.951,0.691s0.013,0.863,0.363,1.118l9.182,6.672l-3.507,10.794
	c-0.134,0.412,0.013,0.863,0.363,1.118c0.352,0.254,0.826,0.255,1.176-0.001l9.181-6.673l9.181,6.673
	c0.175,0.128,0.382,0.191,0.588,0.191s0.412-0.063,0.588-0.19c0.351-0.255,0.497-0.706,0.363-1.118l-3.506-10.794l9.182-6.672
	c0.351-0.255,0.497-0.706,0.363-1.118S40.453,27.344,40.019,27.344z M29.662,34.635c-0.351,0.254-0.497,0.705-0.363,1.117
	l2.779,8.557l-7.278-5.29c-0.176-0.128-0.382-0.191-0.588-0.191s-0.413,0.063-0.588,0.191l-7.278,5.29l2.78-8.557
	c0.134-0.411-0.013-0.863-0.363-1.117l-7.28-5.291h8.999c0.433,0,0.817-0.279,0.951-0.691l2.78-8.557l2.78,8.557
	c0.134,0.412,0.518,0.691,0.951,0.691h8.999L29.662,34.635z"/>
</svg>
