<?xml version="1.0" encoding="utf-8"?>
<!-- Generator: Adobe Illustrator 15.0.0, SVG Export Plug-In . SVG Version: 6.00 Build 0)  -->
<!DOCTYPE svg PUBLIC "-//W3C//DTD SVG 1.1//EN" "http://www.w3.org/Graphics/SVG/1.1/DTD/svg11.dtd">
<svg version="1.1" id="レイヤー_1" xmlns="http://www.w3.org/2000/svg" xmlns:xlink="http://www.w3.org/1999/xlink" x="0px"
	 y="0px" width="92px" height="92px" viewBox="-21.788 -14.107 92 92" enable-background="new -21.788 -14.107 92 92"
	 xml:space="preserve">
<path fill="#DF1C1C" d="M50.283,36.773h-6.273c-1.671,0.001-3.037,1.336-3.089,2.995c-1.257-0.49-2.9-1.107-4.866-1.792
	c-5.026-1.752-9.358-1.748-11.887,0.007c-2.226,1.546-2.462,1.563-3.772,1.654c-0.578,0.041-1.355,0.103-2.181,0.168
	c-1.686,0.134-3.785,0.3-4.464,0.3c-1.562,0-3.135,0.619-3.765,1.971l-6.704-3.654c-0.144-0.088-3.583-2.101-7.964,2.613
	c-0.206,0.222-0.3,0.524-0.257,0.823s0.219,0.563,0.479,0.717l19.495,11.576c0.453,0.322,3.015,1.927,7.531,0.738
	c3.13-0.861,6.246-1.899,9.333-3.118c1.254-0.614,2.751-0.614,3.997-0.004l5.024,2.506v0.763c0.001,1.704,1.389,3.09,3.092,3.09
	h6.271c1.702,0,3.089-1.386,3.092-3.091V39.864C53.374,38.161,51.988,36.774,50.283,36.773z M40.918,52.038l-4.139-2.063
	c-1.804-0.883-3.957-0.882-5.688-0.032c-2.948,1.161-5.996,2.177-9.046,3.017c-3.857,1.014-5.771-0.376-5.84-0.428
	c-0.035-0.028-0.071-0.053-0.109-0.075L-2.319,41.521c2.71-2.367,4.495-1.427,4.602-1.368l7.335,4
	c0.055,0.03,0.111,0.055,0.168,0.073c0.131,0.568,0.411,1.065,0.827,1.463c1.165,1.112,2.981,1.062,3.137,1.054h10.991
	c0.553,0,1-0.447,1-1s-0.447-1-1-1l-11.033,0.001c-0.3,0.018-1.255-0.059-1.718-0.504c-0.125-0.121-0.292-0.335-0.292-0.797
	c0-1.208,1.434-1.338,2.051-1.338c0.759,0,2.723-0.155,4.623-0.307c0.818-0.064,1.588-0.126,2.163-0.166
	c1.841-0.129,2.421-0.373,4.772-2.007c1.967-1.367,5.737-1.276,10.088,0.239c2.346,0.816,4.224,1.535,5.522,2.053V52.038z
	 M51.374,55.033c-0.001,0.603-0.491,1.093-1.092,1.093H44.01c-0.602,0-1.091-0.489-1.092-1.091v-1.313
	c0.003-0.044,0.003-0.088,0-0.132V39.865c0.001-0.602,0.49-1.091,1.092-1.092h6.271c0.603,0.001,1.092,0.49,1.092,1.091V55.033z"/>
<path fill="#DF1C1C" d="M20.441,19.228c2.099,0.755,2.739,1.33,2.739,2.465c0.007,1.188-0.839,2.19-2.012,2.383
	c-1.308,0.214-2.542-0.673-2.757-1.979c-0.09-0.545-0.607-0.916-1.149-0.825c-0.545,0.09-0.914,0.604-0.825,1.149
	c0.191,1.16,0.822,2.176,1.776,2.861c0.483,0.347,1.019,0.588,1.582,0.717v1.098c0,0.552,0.448,1,1,1s1-0.448,1-1V25.99
	c1.991-0.469,3.396-2.233,3.385-4.302c0-2.657-2.097-3.634-4.062-4.341c-1.946-0.701-2.739-1.413-2.739-2.464
	c-0.004-0.641,0.243-1.246,0.693-1.701c0.451-0.456,1.052-0.709,1.694-0.713c0.005,0,0.01,0,0.015,0
	c1.167,0,2.159,0.831,2.362,1.981c0.096,0.543,0.616,0.906,1.159,0.811c0.544-0.096,0.907-0.615,0.811-1.159
	c-0.312-1.766-1.637-3.122-3.316-3.517V9.39c0-0.552-0.448-1-1-1s-1,0.448-1,1v1.188c-0.808,0.184-1.549,0.593-2.146,1.197
	c-0.826,0.836-1.277,1.943-1.271,3.113C16.379,17.766,19.226,18.791,20.441,19.228z"/>
<path fill="#DF1C1C" d="M20.782,32.283c0.002,0,0.004,0,0.006,0c7.744-0.003,14.041-6.305,14.038-14.048
	c-0.003-7.742-6.302-14.038-14.042-14.038c-0.002,0-0.004,0-0.006,0h0C13.041,4.205,6.744,10.504,6.74,18.246
	c0.001,3.751,1.464,7.277,4.117,9.929C13.509,30.824,17.033,32.283,20.782,32.283z M20.779,6.197c0.001,0,0.002,0,0.004,0
	c6.637,0,12.04,5.4,12.042,12.039c0.003,6.64-5.397,12.044-12.039,12.047c-0.001,0-0.003,0-0.005,0
	c-3.215,0-6.238-1.251-8.512-3.524c-2.275-2.273-3.529-5.297-3.531-8.519C8.743,11.606,14.144,6.204,20.779,6.197z"/>
</svg>
