<?xml version="1.0" encoding="utf-8"?>
<!-- Generator: Adobe Illustrator 15.0.0, SVG Export Plug-In . SVG Version: 6.00 Build 0)  -->
<!DOCTYPE svg PUBLIC "-//W3C//DTD SVG 1.1//EN" "http://www.w3.org/Graphics/SVG/1.1/DTD/svg11.dtd">
<svg version="1.1" id="レイヤー_1" xmlns="http://www.w3.org/2000/svg" xmlns:xlink="http://www.w3.org/1999/xlink" x="0px"
	 y="0px" width="92px" height="92px" viewBox="-21.788 -14.107 92 92" enable-background="new -21.788 -14.107 92 92"
	 xml:space="preserve">
<path fill="#DF1C1C" d="M39.888,26.298c0-4.187-1.631-8.123-4.592-11.083s-6.897-4.591-11.084-4.59h0
	C15.573,10.629,8.542,17.661,8.538,26.3c0,4.187,1.631,8.124,4.592,11.084c2.96,2.96,6.896,4.59,11.082,4.59c0,0,0.001,0,0.002,0
	C32.857,41.974,39.888,34.941,39.888,26.298z M24.214,39.974c-0.001,0-0.001,0-0.002,0c-3.652,0-7.085-1.422-9.668-4.005
	c-2.583-2.582-4.006-6.017-4.006-9.669c0.003-7.537,6.138-13.671,13.674-13.675c3.652,0,7.087,1.422,9.67,4.005
	s4.006,6.017,4.006,9.669C37.888,33.839,31.754,39.974,24.214,39.974z"/>
<path fill="#DF1C1C" d="M39.348,42.349c0.401-0.602,0.99-1.059,1.694-1.301l1.064-0.367c2.505-0.866,4.015-3.481,3.511-6.083
	l-0.213-1.1c-0.197-1.02,0.08-2.054,0.761-2.839l0.736-0.85c1.737-2.001,1.737-5.021,0-7.023l-0.736-0.849
	c-0.681-0.785-0.958-1.819-0.761-2.839l0.213-1.1c0.504-2.602-1.006-5.217-3.512-6.083l-1.063-0.367
	c-0.983-0.339-1.741-1.098-2.08-2.082l-0.367-1.063c-0.864-2.505-3.477-4.013-6.083-3.512l-1.1,0.213
	c-1.018,0.199-2.054-0.08-2.838-0.761l-0.851-0.737c-2.002-1.736-5.021-1.736-7.022,0l0,0l-0.845,0.734
	c-0.787,0.683-1.826,0.959-2.848,0.76l-1.1-0.213c-2.604-0.502-5.217,1.006-6.083,3.511L9.459,9.466
	c-0.339,0.983-1.097,1.741-2.081,2.08l-1.063,0.367c-2.505,0.866-4.015,3.48-3.511,6.083l0.213,1.099
	c0.197,1.02-0.08,2.054-0.76,2.838l-0.738,0.85c-1.736,2.002-1.736,5.021,0,7.022l0.737,0.85c0.681,0.785,0.958,1.819,0.761,2.838
	l-0.214,1.101c-0.503,2.603,1.006,5.217,3.511,6.082l1.063,0.367c0.706,0.243,1.295,0.702,1.698,1.308L0.946,56.435
	c-0.182,0.315-0.178,0.706,0.011,1.018c0.188,0.313,0.51,0.506,0.897,0.481l9.249-0.388l3.548,7.742
	c0.156,0.34,0.489,0.564,0.862,0.582c0.016,0.001,0.031,0.001,0.047,0.001c0.356,0,0.687-0.189,0.866-0.5l7.787-13.485l7.786,13.485
	c0.188,0.324,0.539,0.525,0.913,0.499c0.374-0.018,0.706-0.242,0.862-0.582l3.547-7.742l9.249,0.388
	c0.354,0.024,0.708-0.169,0.897-0.48c0.188-0.313,0.193-0.702,0.011-1.019L39.348,42.349z M15.662,62.694l-3.021-6.593
	c-0.164-0.356-0.52-0.583-0.909-0.583c-0.014,0-0.028,0-0.042,0.001l-8.103,0.34l6.448-11.168c1.02,2.205,3.454,3.486,5.884,3.016
	l1.099-0.214c1.021-0.196,2.055,0.081,2.839,0.762l0.845,0.732c0.653,0.566,1.415,0.947,2.214,1.145L15.662,62.694z M22.012,47.476
	l-0.845-0.732c-0.988-0.856-2.224-1.313-3.5-1.313c-0.341,0-0.686,0.033-1.03,0.1l-1.099,0.214c-1.635,0.311-3.27-0.631-3.813-2.205
	l-0.375-1.065c-0.54-1.568-1.75-2.778-3.318-3.32l-1.063-0.367c-1.57-0.542-2.516-2.181-2.201-3.811l0.214-1.101
	c0.314-1.626-0.127-3.277-1.213-4.529l-0.737-0.85c-1.088-1.254-1.088-3.147,0-4.401l0.738-0.85c1.086-1.252,1.528-2.903,1.213-4.53
	l-0.213-1.099c-0.315-1.63,0.63-3.269,2.201-3.812l1.062-0.367c1.569-0.54,2.779-1.75,3.319-3.318l0.367-1.063
	c0.542-1.57,2.178-2.519,3.812-2.201l1.098,0.212c1.633,0.32,3.287-0.123,4.541-1.214l0.845-0.734
	c1.255-1.088,3.147-1.088,4.401,0.001l0.851,0.737c1.25,1.085,2.9,1.526,4.529,1.213l1.099-0.213c1.63-0.316,3.271,0.63,3.813,2.201
	l0.367,1.062c0.54,1.568,1.75,2.778,3.318,3.32l1.063,0.367c1.57,0.542,2.517,2.181,2.201,3.812l-0.213,1.099
	c-0.315,1.626,0.126,3.277,1.213,4.53l0.737,0.849c1.088,1.254,1.088,3.147-0.001,4.401l-0.737,0.85
	c-1.086,1.252-1.527,2.903-1.212,4.529l0.213,1.101c0.315,1.63-0.631,3.269-2.201,3.812l-1.063,0.367
	c-1.569,0.539-2.779,1.749-3.319,3.318l-0.367,1.063c-0.542,1.569-2.184,2.516-3.811,2.201l-1.102-0.214
	c-1.628-0.315-3.278,0.127-4.528,1.213l-0.851,0.737C25.16,48.563,23.266,48.563,22.012,47.476z M36.734,55.52
	c-0.429-0.027-0.782,0.213-0.951,0.582l-3.021,6.592L25.51,50.132c0.799-0.197,1.561-0.578,2.214-1.145l0.852-0.738
	c0.782-0.681,1.814-0.954,2.837-0.761l1.101,0.214c2.419,0.472,4.857-0.808,5.879-3.009l6.444,11.166L36.734,55.52z"/>
</svg>
