<?xml version="1.0" encoding="utf-8"?>
<!-- Generator: Adobe Illustrator 15.0.0, SVG Export Plug-In . SVG Version: 6.00 Build 0)  -->
<!DOCTYPE svg PUBLIC "-//W3C//DTD SVG 1.1//EN" "http://www.w3.org/Graphics/SVG/1.1/DTD/svg11.dtd">
<svg version="1.1" id="レイヤー_1" xmlns="http://www.w3.org/2000/svg" xmlns:xlink="http://www.w3.org/1999/xlink" x="0px"
	 y="0px" width="92px" height="92px" viewBox="-21.788 -14.107 92 92" enable-background="new -21.788 -14.107 92 92"
	 xml:space="preserve">
<path fill="#DF1C1C" d="M50.444,29.608c-0.61-7.006-3.912-13.356-9.298-17.878C35.76,7.207,28.939,5.056,21.928,5.662
	c-6.137,0.535-11.77,3.135-16.113,7.391V7.475c0-0.552-0.448-1-1-1s-1,0.448-1,1v8.122c-0.002,0.287,0.12,0.573,0.357,0.772
	c0.211,0.177,0.477,0.252,0.726,0.231h8.851c0.552,0,1-0.448,1-1s-0.448-1-1-1H7.095c4.028-4.002,9.28-6.447,15.007-6.946
	c6.472-0.562,12.781,1.427,17.757,5.606c4.978,4.179,8.028,10.046,8.592,16.521c0.564,6.475-1.427,12.78-5.606,17.757
	c-4.18,4.978-10.047,8.028-16.521,8.593c-6.482,0.562-12.781-1.428-17.757-5.606C1.562,44.643-1.537,35.446,0.482,26.523
	c0.122-0.539-0.216-1.074-0.755-1.196c-0.539-0.122-1.074,0.216-1.196,0.755c-2.185,9.656,1.168,19.608,8.75,25.974
	c4.787,4.021,10.709,6.17,16.887,6.169c0.772,0,1.551-0.033,2.33-0.102c7.006-0.61,13.355-3.912,17.878-9.298
	C48.899,43.439,51.054,36.614,50.444,29.608z"/>
<path fill="#DF1C1C" d="M15.632,31.922c0,4.789,3.897,8.686,8.687,8.686s8.686-3.896,8.686-8.686c0-4.79-3.896-8.687-8.686-8.687
	S15.632,27.132,15.632,31.922z M24.318,25.235c3.687,0,6.686,3,6.686,6.687c0,3.687-2.999,6.686-6.686,6.686
	s-6.687-2.999-6.687-6.686C17.632,28.235,20.631,25.235,24.318,25.235z"/>
<path fill="#DF1C1C" d="M25.318,19.545v-3.336c0-0.552-0.447-1-1-1s-1,0.448-1,1v3.336c0,0.552,0.448,1,1,1
	S25.318,20.098,25.318,19.545z"/>
<path fill="#DF1C1C" d="M23.318,44.299v3.336c0,0.553,0.448,1,1,1s1-0.447,1-1v-3.336c0-0.553-0.447-1-1-1
	S23.318,43.746,23.318,44.299z"/>
<path fill="#DF1C1C" d="M8.605,30.922c-0.552,0-1,0.448-1,1c0,0.553,0.448,1,1,1h3.336c0.552,0,1-0.447,1-1c0-0.552-0.448-1-1-1
	H8.605z"/>
<path fill="#DF1C1C" d="M40.032,32.922c0.553,0,1-0.447,1-1c0-0.552-0.447-1-1-1h-3.336c-0.553,0-1,0.448-1,1c0,0.553,0.447,1,1,1
	H40.032z"/>
<path fill="#DF1C1C" d="M14.859,39.967l-2.358,2.358c-0.391,0.391-0.391,1.023,0,1.414c0.195,0.195,0.451,0.293,0.707,0.293
	s0.512-0.098,0.707-0.293l2.358-2.358c0.391-0.391,0.391-1.023,0-1.414S15.25,39.576,14.859,39.967z"/>
<path fill="#DF1C1C" d="M34.722,20.104l-2.358,2.359c-0.391,0.391-0.391,1.024,0,1.414c0.195,0.195,0.451,0.293,0.707,0.293
	s0.512-0.098,0.707-0.293l2.358-2.359c0.391-0.391,0.391-1.024,0-1.414C35.746,19.714,35.113,19.714,34.722,20.104z"/>
<path fill="#DF1C1C" d="M32.364,39.967c-0.391,0.391-0.391,1.023,0,1.414l2.358,2.358c0.195,0.195,0.451,0.293,0.707,0.293
	s0.512-0.098,0.707-0.293c0.391-0.391,0.391-1.023,0-1.414l-2.358-2.358C33.387,39.576,32.754,39.576,32.364,39.967z"/>
<path fill="#DF1C1C" d="M13.915,20.104c-0.391-0.391-1.023-0.391-1.414,0c-0.391,0.39-0.391,1.023,0,1.414l2.358,2.359
	c0.195,0.195,0.451,0.293,0.707,0.293s0.512-0.098,0.707-0.293c0.391-0.39,0.391-1.023,0-1.414L13.915,20.104z"/>
</svg>
