<?xml version="1.0" encoding="utf-8"?>
<!-- Generator: Adobe Illustrator 28.3.0, SVG Export Plug-In . SVG Version: 6.00 Build 0)  -->
<svg version="1.1" id="レイヤー_1" xmlns="http://www.w3.org/2000/svg" xmlns:xlink="http://www.w3.org/1999/xlink" x="0px"
	 y="0px" viewBox="0 0 261 50.43" style="enable-background:new 0 0 261 50.43;" xml:space="preserve">
<style type="text/css">
	.st0{fill:#FFFFFF;}
</style>
<g>
	<g>
		<g>
			<path class="st0" d="M22.65,0.12C14.91-0.67,11.78,2.65,9.32,7.51c-0.74,1.47-1.42,3.35-2.29,5.03c-1.18,2.28-2.34,3.6-4.05,5.17
				c-0.51,0.47-1.31,1.27-1.53,1.53c-0.21,0.25-0.3,0.49-0.26,0.73c0.06,0.41,0.81,1.11,1.92,1.75c0.69,0.4,0.6,0.83,0.44,1.48
				c-0.28,1.12,0.72,1.51,1.32,1.96c0.09,0.07,0.11,0.2,0.04,0.29C4.33,26.18,4.05,26.73,5,27.75c0.71,0.76,1.2,1.29,1.2,3.52
				c0,1.08,0.49,2.75,2.7,2.58c2.25-0.17,3.34-0.49,5.16-0.69c5.9-0.63,10.54,0.84,14.13,4.54l9.22-13.88
				c-3.5-0.72-7.47-1.36-12.33-0.18l-0.01,0l-0.82-2.65l0.18-0.04c5.94-1.44,10.71-0.44,14.55,0.37c0.03,0.01,0.06,0.01,0.09,0.02
				l3.07-4.62c-1.84-0.16-3.57-0.46-5.27-0.75c-4.36-0.75-8.48-1.46-13.9,0.21l-0.18,0.06l-0.82-2.65l0.19-0.06
				c6.06-1.86,10.7-1.06,15.19-0.29c1.77,0.3,3.6,0.62,5.48,0.76c0.37,0.03,0.73,0.05,1.09,0.06l2.61-3.93
				c-3.4-0.07-6.63-0.61-9.8-1.14c-5.61-0.95-10.91-1.84-16.51,0.04l-0.04,0.01l-0.82-2.65c1.51-0.5,3.02-0.84,4.63-1.04
				c1.43-0.18,2.91-0.23,4.51-0.17c2.93,0.11,5.86,0.6,8.69,1.08c2.17,0.37,4.42,0.75,6.67,0.95c1.6,0.15,3.1,0.19,4.52,0.14
				l4.79-7.21C43.79,2.65,30.05,0.88,22.65,0.12 M11.08,17.85l-0.53-0.75l0.4-0.28L9.71,13.7l-1-0.08l0.07-0.91l7.41,0.59l0.23,0.83
				L11.08,17.85z"/>
			<polygon class="st0" points="11.66,16.33 14.84,14.1 10.64,13.77 			"/>
		</g>
		<g>
			<g>
				<g>
					<path class="st0" d="M24.67,44.12c-1.47,0-2.51,0.98-2.51,2.36c0,1.38,1.05,2.36,2.51,2.36c1.47,0,2.51-0.98,2.51-2.36
						C27.18,45.1,26.13,44.12,24.67,44.12z M24.67,47.64c-0.64,0-1.16-0.52-1.16-1.16c0-0.64,0.52-1.16,1.16-1.16
						c0.64,0,1.16,0.52,1.16,1.16C25.83,47.12,25.31,47.64,24.67,47.64z"/>
					<path class="st0" d="M14.55,44.12c-1.47,0-2.51,0.98-2.51,2.36c0,1.38,1.05,2.36,2.51,2.36c1.47,0,2.51-0.98,2.51-2.36
						C17.06,45.1,16.01,44.12,14.55,44.12z M14.55,47.64c-0.64,0-1.16-0.52-1.16-1.16c0-0.64,0.52-1.16,1.16-1.16
						c0.64,0,1.16,0.52,1.16,1.16C15.71,47.12,15.19,47.64,14.55,47.64z"/>
					<rect x="17.8" y="42.51" class="st0" width="1.35" height="6.17"/>
					<rect x="20.06" y="42.51" class="st0" width="1.35" height="6.17"/>
					<path class="st0" d="M9.14,44.12c-0.54,0-0.97,0.19-1.3,0.47v-0.33H6.49v6.17h1.35v-2.07c0.33,0.28,0.76,0.47,1.3,0.47
						c1.29,0,2.29-1.08,2.29-2.36S10.43,44.12,9.14,44.12z M8.92,47.64c-0.64,0-1.16-0.52-1.16-1.16c0-0.64,0.52-1.16,1.16-1.16
						c0.64,0,1.16,0.52,1.16,1.16C10.09,47.12,9.57,47.64,8.92,47.64z"/>
					<path class="st0" d="M4.23,44.26v0.33c-0.33-0.28-0.76-0.47-1.3-0.47c-1.29,0-2.29,1.08-2.29,2.36s1,2.36,2.29,2.36
						c0.54,0,0.97-0.19,1.3-0.47v0.33h1.35v-4.43H4.23z M3.14,47.64c-0.64,0-1.16-0.52-1.16-1.16c0-0.64,0.52-1.16,1.16-1.16
						c0.64,0,1.16,0.52,1.16,1.16C4.3,47.12,3.78,47.64,3.14,47.64z"/>
				</g>
				<g>
					<path class="st0" d="M40.44,47.62c0,0.67,0.34,1.08,1.23,1.08c0.15,0,0.31-0.01,0.53-0.05v-0.69
						c-0.16,0.03-0.32,0.03-0.43,0.03c-0.42,0-0.47-0.22-0.47-0.57v-2.46h0.87v-0.7H41.3v-0.94h-0.86v0.94h-0.71v0.7h0.71V47.62z"/>
					<path class="st0" d="M32.48,47.62c0,0.67,0.34,1.08,1.23,1.08c0.15,0,0.31-0.01,0.53-0.05v-0.69
						c-0.16,0.03-0.32,0.03-0.43,0.03c-0.42,0-0.47-0.22-0.47-0.57v-2.46h0.87v-0.7h-0.87v-0.94h-0.86v0.94h-0.71v0.7h0.71V47.62z"
						/>
					<path class="st0" d="M52.01,44.15c-0.48,0-0.93,0.22-1.23,0.62v-0.51h-0.82v4.43h0.86v-2.41c0-0.3,0.05-0.57,0.16-0.78
						c0.19-0.34,0.53-0.54,0.96-0.54c0.57,0,1.02,0.36,1.02,1.17v2.56h0.86v-2.67C53.82,44.73,53.02,44.15,52.01,44.15z"/>
					<g>
						<rect x="42.93" y="44.26" class="st0" width="0.86" height="4.43"/>
					</g>
					<path class="st0" d="M29.99,46.13l-0.49-0.08c-0.52-0.1-0.83-0.25-0.83-0.63c0-0.37,0.49-0.6,0.92-0.6
						c0.48,0,1.06,0.18,1.1,0.82h0.83c-0.03-0.94-0.86-1.48-1.94-1.48c-0.93,0-1.77,0.52-1.77,1.3c0,0.72,0.5,1.15,1.45,1.32
						l0.45,0.09c0.73,0.13,0.96,0.29,0.96,0.64c0,0.39-0.38,0.62-0.98,0.62c-0.62,0-1.02-0.22-1.09-0.84h-0.86
						c0.06,1.06,0.91,1.52,1.94,1.52c1.01,0,1.85-0.49,1.85-1.36C31.53,46.7,31.07,46.33,29.99,46.13z"/>
					<path class="st0" d="M43.9,43.32c0,0.3-0.24,0.54-0.54,0.54c-0.3,0-0.54-0.24-0.54-0.54c0-0.3,0.24-0.54,0.54-0.54
						C43.66,42.78,43.9,43.02,43.9,43.32z"/>
					<path class="st0" d="M38.34,44.26v0.5c-0.34-0.33-0.88-0.6-1.59-0.6c-1.35,0-2.35,1.04-2.35,2.32c0,1.28,1,2.32,2.35,2.32
						c0.7,0,1.25-0.27,1.59-0.6v0.5h0.86v-4.43H38.34z M36.84,48.05c-0.87,0-1.58-0.71-1.58-1.58s0.71-1.58,1.58-1.58
						c0.87,0,1.58,0.71,1.58,1.58S37.71,48.05,36.84,48.05z"/>
					<path class="st0" d="M46.87,44.15c-1.41,0-2.44,1.04-2.44,2.32s1.03,2.32,2.44,2.32c1.41,0,2.44-1.04,2.44-2.32
						S48.28,44.15,46.87,44.15z M46.87,48.05c-0.87,0-1.58-0.71-1.58-1.58s0.71-1.58,1.58-1.58c0.87,0,1.58,0.71,1.58,1.58
						S47.75,48.05,46.87,48.05z"/>
				</g>
			</g>
		</g>
	</g>
</g>
<path d="M63.7,0.67h12.76v13.39h-1.48v-0.69h-9.87v0.69H63.7V0.67z M65.11,12.04h9.87V1.99h-9.87V12.04z M70.66,9.7h3.5v1.2h-8.13
	V9.7h3.31V7.38h-2.68V6.22h2.68V4.29h-3.12V3.1h7.65v1.18h-3.21v1.94h2.88v1.15h-2.88V9.7z M72.77,9.66
	c-0.29-0.45-0.87-1.14-1.37-1.63l0.93-0.46c0.5,0.45,1.11,1.12,1.4,1.56L72.77,9.66z"/>
<path d="M85.94,11.97h6.11v1.43H78.4v-1.43h6.03V6.21h-5.05V4.78h5.05V0.01l1.88,0.12c-0.01,0.13-0.11,0.21-0.36,0.25v4.39h5.12
	v1.42h-5.12V11.97z"/>
<path d="M98.39,6.25c0.48,1.2,1.14,2.24,1.99,3.12c0.86-0.88,1.53-1.93,2-3.19l1.74,0.57c-0.06,0.11-0.2,0.18-0.41,0.17
	c-0.57,1.33-1.32,2.48-2.25,3.42c1.54,1.16,3.53,1.95,5.97,2.34c-0.33,0.33-0.73,0.96-0.94,1.37c-2.55-0.48-4.56-1.38-6.15-2.7
	c-1.63,1.28-3.69,2.13-6.13,2.71c-0.17-0.34-0.57-0.96-0.82-1.27c2.35-0.48,4.35-1.26,5.91-2.45c-0.93-1.02-1.67-2.23-2.25-3.66
	L98.39,6.25z M99.13,4.27c-0.06,0.11-0.21,0.15-0.39,0.12C97.7,5.67,96.1,7,94.66,7.87c-0.25-0.3-0.75-0.81-1.08-1.05
	c1.4-0.73,2.99-2.01,3.88-3.25L99.13,4.27z M107.03,1.86v1.4H93.68v-1.4h5.91v-1.9l1.82,0.12c-0.02,0.12-0.11,0.21-0.34,0.24v1.54
	H107.03z M105.95,7.75c-0.79-0.97-2.54-2.43-3.96-3.42l1.17-0.85c1.39,0.92,3.18,2.29,4.04,3.3L105.95,7.75z"/>
<path d="M111.97,5.92v4.89c1,1.65,3,1.65,5.64,1.65c1.72,0,3.78-0.04,5.12-0.15c-0.17,0.33-0.39,0.99-0.47,1.39
	c-1.11,0.04-2.8,0.08-4.36,0.08c-3.27,0-5.12,0-6.54-1.79c-0.73,0.63-1.5,1.25-2.13,1.72c0,0.15-0.04,0.23-0.18,0.29l-0.72-1.51
	c0.69-0.42,1.54-1.02,2.28-1.59V7.24h-2.1V5.92H111.97z M109.73,0.31c0.96,0.66,2.1,1.67,2.62,2.4l-1.06,1.02
	c-0.48-0.75-1.59-1.81-2.55-2.52L109.73,0.31z M114.76,9.21v2.42h-1.33V3.78h3.93c-0.81-0.39-1.74-0.79-2.52-1.09l0.91-0.76
	c0.6,0.21,1.31,0.48,1.98,0.78c0.58-0.3,1.18-0.66,1.68-1.04h-5.92V0.55h7.3L121,0.48l1.05,0.67c-0.06,0.09-0.17,0.14-0.28,0.15
	c-0.72,0.63-1.76,1.37-2.81,1.93c0.39,0.2,0.75,0.38,1.04,0.54h1.89v6.53c0,1.23-0.51,1.36-2.61,1.36
	c-0.04-0.36-0.21-0.83-0.38-1.15c0.38,0.01,0.72,0.03,0.99,0.03c0.58,0,0.64,0,0.64-0.25V9.21h-2.28v2.36h-1.29V9.21H114.76z
	 M116.96,4.84h-2.21v1.11h2.21V4.84z M114.76,8.14h2.21V6.99h-2.21V8.14z M120.53,5.95V4.84h-2.28v1.11H120.53z M118.25,8.14h2.28
	V6.99h-2.28V8.14z"/>
<path d="M126.7,7.36c-0.75,0.17-1.5,0.3-2.25,0.42c-0.17-0.31-0.55-0.88-0.81-1.17c4-0.54,8.07-1.68,9.93-3.84l1.53,0.74
	c-0.09,0.09-0.24,0.13-0.42,0.1c-1.04,1.11-2.52,1.98-4.21,2.64h5.25v7.73h-1.44v-0.47h-6.21v0.54h-1.37V7.36z M128.66,1.35
	c-0.08,0.12-0.21,0.17-0.36,0.15c-0.84,1.14-2.16,2.35-3.39,3.12c-0.24-0.25-0.72-0.71-1.04-0.93c1.19-0.66,2.46-1.8,3.2-2.92
	L128.66,1.35z M131.71,0.06c-0.02,0.12-0.11,0.2-0.34,0.24v3.12c0,1.27-0.68,1.39-2.88,1.39c-0.09-0.38-0.33-0.88-0.54-1.21
	c0.43,0.01,0.88,0.03,1.21,0.03c0.69,0,0.78-0.02,0.78-0.24v-3.42L131.71,0.06z M134.27,8.35v-1h-6.21v1H134.27z M128.06,9.36v1.04
	h6.21V9.36H128.06z M128.06,12.43h6.21V11.4h-6.21V12.43z M136.4,4.32c-0.63-0.84-2.05-2.1-3.25-2.96l1.14-0.71
	c1.17,0.81,2.62,2.01,3.34,2.87L136.4,4.32z"/>
<path d="M143.92,6.55l0.15,1.23c-0.57,0.2-1.16,0.39-1.71,0.58v4.07c0,1.32-0.48,1.6-2.75,1.57c-0.04-0.36-0.22-0.93-0.4-1.3
	c0.38,0.01,0.75,0.03,1.03,0.03c0.65,0,0.72,0,0.72-0.3V8.82c-0.6,0.2-1.14,0.38-1.59,0.51c-0.02,0.13-0.11,0.23-0.23,0.27
	l-0.48-1.64c0.63-0.15,1.42-0.36,2.29-0.6V4.21h-2.08V2.89h2.08v-2.91l1.74,0.09c-0.01,0.14-0.1,0.23-0.34,0.26v2.56h1.62v1.32
	h-1.62v2.77L143.92,6.55z M146.06,4.18c0,0.55,0.18,0.64,1.17,0.64h3.22c0.83,0,0.96-0.27,1.05-1.84c0.32,0.23,0.9,0.44,1.31,0.53
	c-0.2,2.07-0.65,2.59-2.27,2.59h-3.43c-1.93,0-2.45-0.41-2.45-1.91v-4.23l1.75,0.1c-0.01,0.14-0.12,0.21-0.36,0.24v1.83
	c1.71-0.37,3.51-0.9,4.59-1.41l1.15,1.09c-0.06,0.06-0.13,0.06-0.33,0.06c-1.35,0.52-3.48,1.05-5.42,1.41V4.18z M144.89,14.04V7.21
	h6.99v6.72h-1.41v-0.55h-4.23v0.66H144.89z M150.47,8.41h-4.23V9.7h4.23V8.41z M146.24,12.18h4.23v-1.32h-4.23V12.18z"/>
<path d="M161.68,9.54v2.75c0.66,0.1,1.39,0.15,2.16,0.15c0.66,0,3.22,0,4.09-0.03c-0.23,0.33-0.46,1.02-0.53,1.44h-3.64
	c-3.01,0-5.22-0.51-6.62-2.92c-0.51,1.31-1.23,2.4-2.19,3.17c-0.24-0.25-0.76-0.71-1.09-0.93c1.62-1.16,2.43-3.41,2.74-6.1
	l1.74,0.27c-0.03,0.13-0.15,0.21-0.34,0.21c-0.08,0.55-0.18,1.09-0.3,1.62c0.54,1.46,1.39,2.28,2.5,2.75V5.95h-3.45V4.59h8.42v1.36
	h-3.5V8.2h4.37v1.33H161.68z M156.02,3.04V5.2h-1.39V1.69h5.55v-1.74l1.88,0.1c-0.01,0.13-0.11,0.22-0.36,0.25v1.38h5.59V5.2h-1.46
	V3.04H156.02z"/>
<path d="M182.86,8.62h-4.72c0.71,2.25,1.96,4.04,3.13,4.02c0.44,0,0.62-0.66,0.69-2.24c0.33,0.3,0.84,0.58,1.23,0.71
	c-0.22,2.37-0.78,2.96-2.01,2.96c-2.04,0-3.71-2.38-4.56-5.45h-4.28v3.33c1.4-0.18,2.96-0.38,4.46-0.58l0.06,1.3
	c-2.49,0.42-5.13,0.84-6.78,1.08c-0.03,0.15-0.13,0.23-0.25,0.24l-0.52-1.67l1.59-0.2V0.73h10.87v4.72h-3.99l-0.21,0.04
	c0.03,0.6,0.1,1.2,0.22,1.79h5.07V8.62z M180.31,2.05h-7.96v2.08h7.96V2.05z M172.34,7.29h3.98c-0.12-0.6-0.2-1.21-0.25-1.83h-3.72
	V7.29z"/>
<path d="M190.63,5.92h-4.23v8.11h-1.41V0.6h5.64V5.92z M189.28,1.66h-2.88v1.07h2.88V1.66z M186.4,4.87h2.88V3.73h-2.88V4.87z
	 M197.62,0.6v11.65c0,1.67-0.72,1.77-3.38,1.77c-0.06-0.39-0.25-1-0.45-1.4h-4.12v0.77h-1.31V6.97h5.75v5.61
	c0.39,0.01,0.75,0.01,1.06,0.01c1.01,0,1.02,0,1.02-0.36V5.95h-4.35V0.6H197.62z M192.77,8.05h-3.1v1.18h3.1V8.05z M189.67,11.55
	h3.1v-1.26h-3.1V11.55z M196.19,1.66h-2.99v1.07h2.99V1.66z M193.21,4.9h2.99V3.73h-2.99V4.9z"/>
<path d="M213.29,10.6v1.29h-6.2v2.13h-1.47v-2.13h-6.04V10.6h6.04V9.57h-4.48v-6h4.48V2.61h-5.65V1.3h5.65v-1.32l1.83,0.11
	c-0.02,0.12-0.12,0.21-0.36,0.25V1.3h5.73v1.3h-5.73v0.96h4.62v6h-4.62v1.04H213.29z M202.52,4.74v1.28h3.1V4.74H202.52z
	 M202.52,8.4h3.1V7.11h-3.1V8.4z M210.29,4.74h-3.2v1.28h3.2V4.74z M210.29,8.4V7.11h-3.2V8.4H210.29z"/>
<path d="M227.93,9.96h-2.86c0.87,1.74,2.07,2.42,3.71,2.94c-0.33,0.3-0.68,0.78-0.83,1.2c-1.67-0.64-2.91-1.47-3.84-3.25
	c-0.58,1.29-1.8,2.48-4.23,3.27c-0.13-0.3-0.54-0.84-0.78-1.08c2.53-0.79,3.55-1.89,3.97-3.08h-2.96V5.92h3.2V4.71h-2.13V3.96
	c-0.42,0.29-0.84,0.54-1.28,0.77c-0.08-0.17-0.18-0.38-0.3-0.58V4.5h-1.53v0.96c0.42,0.54,1.54,2.21,1.79,2.6l-0.76,1.11
	c-0.2-0.48-0.63-1.29-1.02-2.01v6.87h-1.32V7.56c-0.46,1.46-1.05,2.8-1.67,3.67c-0.15-0.38-0.46-0.93-0.69-1.25
	c0.92-1.26,1.8-3.52,2.25-5.49h-1.92V3.18h2.03v-3.2l1.67,0.09c-0.02,0.12-0.12,0.21-0.35,0.24v2.87h1.53v0.21
	c1.53-0.83,2.98-2.17,3.71-3.39c0.1,0.01,0.22,0.01,1.67,0.06c-0.03,0.11-0.14,0.18-0.25,0.21c0.94,1.28,2.64,2.55,4.15,3.2
	c-0.27,0.33-0.57,0.85-0.75,1.24c-0.42-0.21-0.85-0.46-1.27-0.76v0.76h-2.25v1.22h3.33V9.96z M221.36,8.85h1.92
	c0.03-0.23,0.03-0.45,0.03-0.68V7.03h-1.95V8.85z M226.27,3.52c-0.9-0.69-1.74-1.5-2.29-2.28c-0.51,0.75-1.31,1.58-2.21,2.28H226.27
	z M226.64,7.03h-2.04V8.2c0,0.21,0,0.44-0.02,0.65h2.06V7.03z"/>
<path d="M237.44,11.49h6.03v1.42h-13.51v-1.42h5.96V3.07h-5.22V1.63h12.09v1.44h-5.34V11.49z"/>
<path d="M258.88,7.36h-6.22c-0.17,0.32-0.35,0.63-0.56,0.95h5.43l0.28-0.03l0.77,0.12c-0.02,0.12-0.03,0.25-0.06,0.38
	c-0.24,3.12-0.48,4.33-0.88,4.77c-0.43,0.48-0.85,0.51-2.46,0.46c-0.01-0.34-0.13-0.85-0.31-1.15c0.52,0.04,0.99,0.06,1.2,0.06
	c0.21,0,0.35-0.03,0.45-0.17c0.25-0.25,0.45-1.14,0.63-3.3h-0.99c-0.54,1.79-1.62,3.71-2.8,4.71c-0.24-0.29-0.67-0.63-1.02-0.83
	c1.11-0.79,2.08-2.33,2.67-3.88h-1.21c-0.79,1.54-2.22,3.2-3.53,4.08c-0.24-0.29-0.63-0.65-0.96-0.86c1.2-0.66,2.42-1.93,3.22-3.22
	h-1.29c-0.6,0.69-1.28,1.29-1.98,1.74c-0.21-0.23-0.63-0.63-0.9-0.83c0.49-0.29,0.97-0.65,1.41-1.08V9.27
	c-1.53,0.75-3.15,1.51-4.21,1.99c0,0.12-0.07,0.23-0.19,0.27l-0.62-1.56c0.54-0.2,1.21-0.47,1.96-0.78V4.56h-1.67V3.21h1.67V0
	l1.68,0.1c-0.01,0.12-0.1,0.2-0.34,0.23v2.88h1.54v1.35h-1.54v4.09l1.46-0.62c0.03,0.06,0.03,0.12,0.29,1.23
	c0.57-0.56,1.08-1.21,1.47-1.91h-2V6.15h9.63V7.36z M257.8,0.4v5.01h-7.06V0.4H257.8z M256.48,2.41V1.42h-4.47v0.99H256.48z
	 M256.48,4.39v-1h-4.47v1H256.48z"/>
<path d="M193.55,37.74c0.5,0.67,1.94,2.84,2.27,3.35l-1.19,1.62c-0.23-0.59-0.65-1.46-1.08-2.27v7.62h-2v-6.84
	c-0.5,1.44-1.1,2.75-1.75,3.67c-0.18-0.59-0.67-1.44-0.99-1.96c1.08-1.44,2.07-3.92,2.57-6.1h-2.12v-2h2.29v-3.75l2.47,0.14
	c-0.02,0.16-0.14,0.27-0.47,0.32v3.28h1.98v2h-1.98V37.74z M205.83,40.57h-3.06c0.97,1.67,2.3,3.37,3.51,4.41
	c-0.5,0.38-1.24,1.13-1.62,1.71c-0.95-1.04-1.98-2.58-2.83-4.18v5.55h-2.14v-5.35c-0.97,1.71-2.18,3.24-3.42,4.27
	c-0.34-0.5-1.03-1.28-1.51-1.67c1.55-1.06,3.06-2.84,4.07-4.74h-3.31v-2h4.18V36.1H198c-0.25,0.77-0.52,1.51-0.86,2.12
	c-0.45-0.29-1.24-0.7-1.73-0.88c0.81-1.49,1.31-3.89,1.53-5.63l2.38,0.5c-0.05,0.13-0.2,0.23-0.43,0.23
	c-0.09,0.49-0.22,1.06-0.34,1.67h1.15v-3.04l2.63,0.14c-0.02,0.18-0.16,0.29-0.49,0.36v2.54h3.49v1.98h-3.49v2.47h4V40.57z"/>
<path d="M223.83,36.28h-4.9c0.34,5.06,1.42,9.47,2.74,9.49c0.4,0,0.65-1.01,0.72-3.29c0.5,0.52,1.28,1.1,1.89,1.33
	c-0.34,3.47-1.08,4.29-2.81,4.29c-3.12-0.02-4.43-5.51-4.86-11.81h-9.06v-2.11h8.95c-0.04-1.01-0.05-2.02-0.05-3.01l2.92,0.16
	c0,0.2-0.16,0.32-0.52,0.38c-0.02,0.83-0.02,1.64,0,2.47h2.86c-0.5-0.61-1.4-1.39-2.14-1.93l1.42-1.19c0.83,0.58,1.89,1.4,2.39,2.02
	l-1.26,1.1h1.71V36.28z M213.14,40.37v4.12c1.12-0.2,2.29-0.41,3.4-0.63l0.14,1.91c-2.92,0.67-6.03,1.31-8.01,1.71
	c-0.04,0.18-0.18,0.29-0.32,0.32l-0.79-2.4c0.94-0.14,2.12-0.32,3.44-0.56v-4.48h-2.77v-2.02h7.76v2.02H213.14z"/>
<path d="M229.63,38.53V37.2c-0.97,0.67-2.02,1.3-3.1,1.8c-0.25-0.49-0.81-1.33-1.26-1.76c3.13-1.39,6.09-4,7.42-6.16l2.92,0.14
	c-0.05,0.18-0.22,0.32-0.47,0.36c1.67,2.25,4.7,4.29,7.44,5.28c-0.54,0.54-1.03,1.31-1.41,1.98c-1.01-0.47-2.07-1.08-3.08-1.76v1.46
	H229.63z M226.4,42.04v-2.02h15.03v2.02h-8.46l0.54,0.18c-0.07,0.14-0.25,0.22-0.54,0.22c-0.38,0.88-0.9,1.91-1.44,2.86
	c1.78-0.04,3.73-0.09,5.67-0.14c-0.61-0.7-1.26-1.39-1.89-1.96l1.91-0.99c1.62,1.4,3.31,3.29,4.16,4.66l-2.02,1.22
	c-0.2-0.36-0.47-0.76-0.77-1.19c-4.07,0.25-8.25,0.47-11,0.59c-0.04,0.16-0.18,0.27-0.34,0.29l-0.76-2.38
	c0.76-0.02,1.66-0.02,2.67-0.05c0.52-1.01,1.04-2.23,1.44-3.31H226.4z M237.35,36.55c-1.41-1.04-2.68-2.23-3.51-3.37
	c-0.77,1.1-1.94,2.29-3.35,3.37H237.35z"/>
<path d="M251.41,35.15c-0.05,0.13-0.16,0.22-0.31,0.27c-0.54,1.4-1.31,2.79-2.23,4.05c0.88,0.61,2.38,1.71,2.79,2.04l-1.26,1.78
	c-0.41-0.5-1.12-1.21-1.8-1.84v6.64h-2.14v-5.85c-0.7,0.67-1.42,1.22-2.16,1.69c-0.18-0.56-0.7-1.62-1.04-2.04
	c2.07-1.15,4.05-3.22,5.26-5.51h-4.7v-1.94h2.65V31.1l2.63,0.14c-0.02,0.18-0.16,0.29-0.49,0.34v2.86h1.06l0.32-0.09L251.41,35.15z
	 M256.83,45.43h3.87v2.12h-10.3v-2.12h4.2v-6.64h-3.46V36.7h3.46v-5.44l2.72,0.16c-0.02,0.18-0.16,0.29-0.49,0.34v4.93h3.44v2.09
	h-3.44V45.43z"/>
<path d="M91.8,27.74H79.86v3.27h9.75v3.27H66.69v-3.27h9.45v-3.27H64.41v-3.33h11.73v-3.96l4.56,0.27c-0.03,0.3-0.27,0.48-0.84,0.57
	v3.12H91.8V27.74z M68.31,48.77V36.65h19.56v12.12h-3.72v-1.05H71.88v1.05H68.31z M84.15,39.86H71.88v4.62h12.27V39.86z"/>
<path d="M121.29,21.89v22.98c0,3.6-1.77,3.93-6.48,3.93c-0.15-0.93-0.66-2.46-1.14-3.36c0.87,0.06,1.83,0.09,2.52,0.09
	c1.41,0,1.56,0,1.56-0.69V25.31h-5.31l3.18,0.99c-0.12,0.21-0.39,0.33-0.78,0.33c-0.54,1.05-1.32,2.46-2.04,3.51h4.02v2.94h-6.27
	c-0.09,0.15-0.3,0.24-0.66,0.33v6.72h2.43v-5.49l3.81,0.21c-0.03,0.27-0.24,0.45-0.75,0.54v9h-3.06V43.1h-8.07v1.8h-3.03V34.64
	l3.75,0.21c-0.03,0.27-0.24,0.45-0.72,0.51v4.77h2.37v-7.05h-6.51v-2.94h3.36c-0.3-1.17-0.96-2.73-1.71-3.87l2.76-0.96h-5.4v23.46
	h-3.51V21.89H121.29z M111.45,30.14l-1.59-0.57c0.63-1.2,1.38-2.94,1.83-4.26h-7.05c0.87,1.26,1.68,2.97,1.98,4.14l-1.83,0.69
	H111.45z"/>
<path d="M152.31,23.42v3.24h-5.67l0.69,0.15c-0.12,0.24-0.36,0.36-0.81,0.39c-0.33,0.69-0.75,1.53-1.2,2.28h5.67v15.39
	c0,3.45-1.56,3.9-6.78,3.9c-0.15-0.78-0.51-1.92-0.9-2.79h-7.23v1.68h-3.18v-9.48h11.97v7.23h1.98c0.51,0,0.66-0.15,0.66-0.6v-7.98
	c-0.42,0.18-0.93,0.24-1.56,0.24h-2.61c-2.76,0-3.33-0.78-3.33-3.27v-1.23h-2.76c-0.3,2.82-1.2,4.89-5.94,5.97
	c-0.21-0.57-0.72-1.41-1.2-2.01V48.8h-3.42V29.48h5.37c-0.27-0.84-0.66-1.83-1.02-2.61l1.11-0.21h-6.99v-3.24h11.52v-2.94l4.5,0.24
	c-0.03,0.3-0.24,0.48-0.81,0.57v2.13H152.31z M130.11,32.57v3.42c2.94-0.57,3.75-1.59,4.02-3.42H130.11z M134.73,26.66
	c0.51,0.93,0.93,2.01,1.14,2.82h5.49c0.42-0.87,0.81-1.89,1.14-2.82H134.73z M141.63,43.28v-2.43h-5.55v2.43H141.63z M145.53,34.46
	c0.48,0,0.63-0.09,0.69-0.69c0.3,0.21,0.78,0.42,1.29,0.6v-1.8h-4.38v1.2c0,0.63,0.06,0.69,0.69,0.69H145.53z"/>
<path d="M182.94,37.67v2.73h-3.18v5.28h-3.66v-1.26h-5.43c0,3.63-0.21,4.41-6.96,4.41c-0.18-0.84-0.72-2.1-1.17-2.85
	c1.44,0.06,3.24,0.06,3.72,0.06c0.57-0.03,0.75-0.21,0.75-0.72v-0.9h-9.18v-2.61h9.18V40.4h-11.97v-2.73h11.97v-1.29h-8.94v-2.46
	h8.94v-1.2h-8.19v-6.3h8.19v-1.14h-11.28v-2.85h11.28v-1.98l4.47,0.18c-0.03,0.33-0.24,0.54-0.81,0.63v1.17h11.58v2.85h-11.58v1.14
	h8.61v6.3h-8.61v1.2h9.09v3.75H182.94z M162.27,30.44h4.74V28.7h-4.74V30.44z M175.59,28.7h-4.92v1.74h4.92V28.7z M170.67,36.38
	v1.29h5.43v-1.29H170.67z M176.1,41.81V40.4h-5.43v1.41H176.1z"/>
</svg>
